# Blender v2.79 (sub 0) OBJ File: ''
# www.blender.org
mtllib bunny.mtl
o Origamix_Rabbit
v 0.285576 0.495753 -0.019032
v 0.283538 0.530026 -0.049958
v 0.284020 0.529015 -0.044063
v 0.362132 0.450002 0.000000
v 0.512130 0.312001 -0.006000
v 0.212131 0.150001 -0.093000
v 0.368132 0.462002 -0.006000
v -0.004128 0.497550 -0.037354
v -0.000827 0.556502 -0.006000
v 0.212132 0.594978 -0.006000
v 0.340475 0.690377 -0.024167
v 0.494015 0.858002 -0.109445
v 0.283696 0.731252 -0.046148
v 0.212132 0.597978 0.000000
v 0.415254 0.637502 -0.038186
v 0.203879 0.432598 -0.096386
v 0.283696 0.731252 -0.061148
v -0.000827 0.559503 0.000000
v 0.297631 0.120001 -0.076500
v 0.362132 0.000000 -0.138000
v 0.044132 0.000000 -0.148500
v 0.362132 0.000000 -0.150000
v 0.212131 0.150001 -0.099000
v 0.374427 0.461445 0.000000
v 0.512130 0.318002 0.000000
v 0.369053 0.464445 0.000000
v 0.512130 0.300002 0.000000
v 0.512130 0.300002 -0.006000
v 0.512130 0.150001 -0.150000
v 0.518130 0.150001 -0.144000
v 0.283696 0.731252 -0.055148
v 0.415254 0.637502 -0.056186
v 0.596132 0.235501 -0.006000
v 0.424684 0.123750 -0.023544
v 0.596132 0.285001 -0.006000
v 0.512130 0.312001 -0.012000
v 0.149879 0.426598 -0.093386
v 0.149879 0.426598 -0.087386
v 0.230132 0.366300 -0.049500
v 0.019373 0.486723 -0.039905
v 0.227715 0.181169 -0.077961
v 0.212131 0.150001 -0.087000
v 0.362132 0.000000 0.000000
v 0.203879 0.432598 -0.087386
v 0.227715 0.181169 -0.071961
v 0.226380 0.291675 -0.068443
v 0.512474 0.297060 -0.012496
v 0.512130 0.306002 -0.004500
v 0.346929 0.000000 -0.036609
v 0.403295 0.000000 -0.055441
v 0.403295 0.000000 -0.061441
v 0.273116 0.603943 -0.037031
v 0.494015 0.858002 -0.118445
v 0.158208 0.397573 -0.024570
v 0.087652 0.428252 0.000000
v 0.052413 0.510377 0.000000
v 0.230132 0.366300 -0.055500
v 0.137132 0.291300 -0.055500
v 0.415254 0.637502 -0.050186
v 0.362132 0.000000 -0.006000
v 0.573844 0.316288 -0.006000
v 0.528417 0.316288 -0.006000
v 0.528417 0.316288 0.000000
v 0.573844 0.316288 0.000000
v -0.000827 0.550502 0.000000
v -0.001163 0.550502 -0.003191
v 0.004155 0.550503 0.000000
v 0.227715 0.181169 -0.065961
v 0.137132 0.291300 -0.049500
v 0.206131 0.150001 0.000000
v 0.188131 0.300002 0.000000
v 0.239506 0.276526 -0.034500
v -0.004128 0.497550 -0.031354
v 0.599131 0.235501 0.000000
v 0.488233 0.165961 0.000000
v 0.225898 0.621191 -0.004837
v 0.234819 0.309413 -0.039000
v 0.234819 0.309413 -0.033000
v 0.288632 0.000000 -0.105000
v 0.362132 0.000000 -0.132000
v 0.410132 -0.000000 -0.000000
v 0.599131 0.285001 0.000000
v 0.273116 0.603943 -0.028032
v 0.349158 0.691401 -0.056156
v 0.284020 0.529016 0.044063
v 0.283538 0.530026 0.049958
v 0.285576 0.495753 0.019032
v 0.368132 0.462002 0.006000
v 0.212131 0.150001 0.093000
v 0.512130 0.312002 0.006000
v 0.212132 0.594978 0.006000
v -0.000827 0.556503 0.006000
v -0.004128 0.497550 0.037354
v 0.283696 0.731252 0.046149
v 0.494015 0.858003 0.109445
v 0.340475 0.690377 0.024167
v 0.415254 0.637502 0.038186
v 0.203879 0.432598 0.096386
v 0.283696 0.731252 0.061149
v 0.044132 -0.000000 0.148500
v 0.362132 -0.000000 0.138000
v 0.297631 0.120001 0.076500
v 0.362132 -0.000000 0.150000
v 0.212131 0.150001 0.099000
v 0.512130 0.300002 0.006000
v 0.518130 0.150001 0.144000
v 0.512130 0.150001 0.150000
v 0.283696 0.731252 0.055149
v 0.415254 0.637502 0.056186
v 0.596132 0.285001 0.006000
v 0.424684 0.123750 0.023544
v 0.596132 0.235501 0.006000
v 0.512130 0.312002 0.012000
v 0.149879 0.426598 0.093386
v 0.019373 0.486723 0.039905
v 0.230132 0.366300 0.049500
v 0.149879 0.426598 0.087386
v 0.227715 0.181169 0.077961
v 0.212131 0.150001 0.087000
v 0.203879 0.432598 0.087386
v 0.226380 0.291675 0.068443
v 0.227715 0.181169 0.071961
v 0.512474 0.297060 0.012496
v 0.512130 0.306002 0.004500
v 0.403295 -0.000000 0.055441
v 0.346929 -0.000000 0.036609
v 0.403295 -0.000000 0.061441
v 0.273116 0.603943 0.037032
v 0.494015 0.858003 0.118445
v 0.158208 0.397573 0.024570
v 0.137132 0.291300 0.055500
v 0.230132 0.366300 0.055500
v 0.415254 0.637502 0.050186
v 0.362132 -0.000000 0.006000
v 0.528417 0.316288 0.006000
v 0.573844 0.316288 0.006000
v -0.001163 0.550503 0.003191
v 0.227715 0.181169 0.065961
v 0.137132 0.291300 0.049500
v 0.239506 0.276526 0.034500
v -0.004128 0.497550 0.031354
v 0.225898 0.621191 0.004837
v 0.234819 0.309413 0.039000
v 0.234819 0.309413 0.033000
v 0.288632 -0.000000 0.105000
v 0.362132 -0.000000 0.132000
v 0.273116 0.603943 0.028032
v 0.349158 0.691401 0.056156
vn 0.9963 -0.0169 -0.0843
vn 0.2165 0.6611 0.7184
vn 0.1846 0.1772 -0.9667
vn -0.0852 0.4716 -0.8777
vn -0.0112 0.4615 0.8871
vn 0.4692 0.4756 -0.7441
vn 0.3094 0.1906 0.9316
vn 0.1693 -0.0218 0.9853
vn -0.8944 0.4472 0.0000
vn 0.5217 -0.0201 -0.8529
vn 0.2077 -0.0328 0.9776
vn -0.0929 0.4860 -0.8690
vn -0.5536 -0.0458 -0.8315
vn -0.0932 0.4894 -0.8670
vn -0.9964 0.0760 -0.0380
vn 0.0292 0.4683 -0.8831
vn -0.7071 -0.7071 0.0000
vn -0.3436 -0.5680 0.7479
vn 0.5931 0.5693 -0.5693
vn -0.9012 0.4318 -0.0376
vn 1.0000 -0.0000 -0.0000
vn 0.5774 -0.5773 -0.5774
vn 0.6931 -0.7208 0.0000
vn 1.0000 -0.0008 0.0000
vn 0.9966 -0.0029 -0.0820
vn 0.3811 -0.5445 -0.7472
vn 0.1018 0.0000 -0.9948
vn -0.4752 0.8799 0.0000
vn -0.1653 0.1653 -0.9723
vn -0.1283 0.6431 -0.7549
vn -0.1011 0.4721 -0.8757
vn -0.4850 -0.8260 -0.2872
vn 0.1104 -0.9939 0.0000
vn 0.5212 -0.0131 -0.8533
vn -0.5017 0.0000 0.8650
vn -0.7475 -0.0302 0.6636
vn 0.5987 0.5322 -0.5987
vn 0.9994 0.0084 0.0336
vn 0.3036 -0.2867 0.9087
vn 0.8187 -0.3650 0.4434
vn 0.9386 -0.3450 0.0000
vn -0.2822 0.2327 -0.9307
vn 0.7179 0.0392 0.6951
vn -0.2194 -0.1196 -0.9683
vn 0.4477 0.8020 -0.3953
vn -0.3881 -0.1665 -0.9065
vn -0.1420 0.1761 -0.9741
vn 0.0533 -0.4795 -0.8759
vn -0.9298 -0.3682 0.0000
vn -0.8249 -0.0561 0.5625
vn -0.1496 0.0708 -0.9862
vn 0.7378 -0.6750 0.0000
vn -0.3899 0.3016 0.8701
vn -0.0139 -0.5121 -0.8588
vn -0.8031 -0.5959 0.0000
vn 0.0000 1.0000 -0.0000
vn -0.7071 0.7071 0.0000
vn 0.0000 -1.0000 -0.0000
vn -0.9945 -0.0000 0.1047
vn 0.0611 0.0435 -0.9972
vn -0.1903 0.1903 -0.9631
vn 0.0000 0.0907 -0.9959
vn -0.7723 -0.6352 0.0000
vn -0.1436 0.0298 -0.9892
vn -0.6028 -0.6269 -0.4935
vn -0.9278 -0.1113 -0.3562
vn -0.1794 -0.2882 0.9406
vn -0.4172 0.3309 -0.8464
vn -0.4376 -0.5262 0.7291
vn -0.3649 -0.4212 0.8303
vn 0.4269 -0.2942 0.8551
vn 0.5448 -0.7931 -0.2724
vn 0.5293 -0.8442 0.0847
vn -0.8573 0.4604 -0.2302
vn -0.9984 0.0559 0.0000
vn -0.9978 0.0145 0.0641
vn 0.0657 0.1661 0.9839
vn -0.0780 0.3860 0.9192
vn -0.3067 -0.4708 -0.8272
vn -0.1577 -0.1918 -0.9687
vn -0.4386 -0.3436 -0.8304
vn -0.3352 -0.4897 0.8049
vn -0.2040 -0.2673 0.9418
vn -0.9900 -0.1411 0.0000
vn -0.1275 0.1166 0.9850
vn -0.1362 0.1689 0.9762
vn -0.6278 0.7784 0.0000
vn -0.4921 -0.3515 -0.7964
vn -0.5707 -0.0439 -0.8200
vn 0.8109 -0.3724 0.4513
vn 0.2792 -0.6181 -0.7348
vn 0.3317 -0.2728 0.9031
vn 0.4878 -0.2296 -0.8422
vn 0.4498 -0.1905 -0.8726
vn -0.1595 0.8830 -0.4415
vn -0.9955 -0.0944 0.0000
vn -0.8853 0.4649 0.0000
vn -0.4184 -0.9082 0.0000
vn -0.6186 -0.7857 0.0000
vn 0.7543 0.5373 -0.3772
vn 0.7777 0.6286 0.0000
vn 0.8944 0.0000 -0.4472
vn -0.5162 0.8565 0.0000
vn 0.9417 -0.3364 0.0000
vn -0.2298 0.9732 0.0000
vn -0.0975 -0.2269 -0.9690
vn -0.1205 -0.2540 -0.9597
vn 0.7546 -0.6561 -0.0000
vn 0.9963 -0.0169 0.0843
vn 0.2165 0.6611 -0.7184
vn 0.1846 0.1772 0.9667
vn -0.0852 0.4716 0.8777
vn -0.0112 0.4615 -0.8871
vn 0.4692 0.4756 0.7441
vn 0.3094 0.1906 -0.9316
vn 0.1693 -0.0218 -0.9853
vn 0.5217 -0.0201 0.8529
vn 0.2077 -0.0328 -0.9776
vn -0.0929 0.4860 0.8690
vn -0.5536 -0.0458 0.8315
vn -0.0932 0.4894 0.8670
vn -0.9964 0.0760 0.0380
vn 0.0292 0.4683 0.8831
vn -0.3436 -0.5680 -0.7479
vn 0.5931 0.5693 0.5693
vn -0.9012 0.4318 0.0376
vn 0.5774 -0.5773 0.5774
vn 0.9966 -0.0029 0.0820
vn 0.3811 -0.5445 0.7472
vn 0.1018 0.0000 0.9948
vn -0.4751 0.8799 0.0000
vn -0.1653 0.1653 0.9723
vn -0.1283 0.6431 0.7549
vn -0.1011 0.4721 0.8757
vn -0.4850 -0.8260 0.2872
vn 0.5212 -0.0131 0.8533
vn -0.5017 0.0000 -0.8650
vn -0.7475 -0.0302 -0.6636
vn 0.5987 0.5322 0.5987
vn 0.9994 0.0084 -0.0336
vn 0.3036 -0.2867 -0.9087
vn 0.8187 -0.3650 -0.4434
vn -0.2822 0.2327 0.9307
vn 0.7179 0.0392 -0.6951
vn -0.2194 -0.1196 0.9683
vn 0.4478 0.8020 0.3953
vn -0.3881 -0.1665 0.9065
vn -0.1420 0.1761 0.9741
vn 0.0533 -0.4795 0.8759
vn -0.8249 -0.0561 -0.5625
vn -0.1496 0.0708 0.9862
vn -0.3899 0.3016 -0.8701
vn -0.0139 -0.5121 0.8588
vn -0.9945 0.0000 -0.1047
vn 0.0611 0.0435 0.9972
vn -0.1903 0.1903 0.9631
vn 0.0000 0.0907 0.9959
vn -0.1436 0.0298 0.9892
vn -0.6028 -0.6269 0.4935
vn -0.9278 -0.1113 0.3562
vn -0.1794 -0.2882 -0.9406
vn -0.4172 0.3309 0.8464
vn -0.4376 -0.5263 -0.7291
vn -0.3649 -0.4212 -0.8303
vn 0.4269 -0.2942 -0.8551
vn 0.5448 -0.7931 0.2724
vn 0.5293 -0.8442 -0.0847
vn -0.8573 0.4604 0.2302
vn -0.9978 0.0145 -0.0641
vn 0.0657 0.1660 -0.9839
vn -0.0780 0.3860 -0.9192
vn -0.3067 -0.4708 0.8272
vn -0.1577 -0.1918 0.9687
vn -0.4386 -0.3436 0.8304
vn -0.3352 -0.4897 -0.8049
vn -0.2040 -0.2673 -0.9418
vn -0.1275 0.1166 -0.9850
vn -0.1362 0.1689 -0.9762
vn -0.4921 -0.3515 0.7964
vn -0.5707 -0.0439 0.8200
vn 0.8109 -0.3724 -0.4513
vn 0.2792 -0.6181 0.7348
vn 0.3317 -0.2728 -0.9031
vn 0.4878 -0.2296 0.8422
vn 0.4498 -0.1905 0.8726
vn -0.1595 0.8830 0.4415
vn 0.7543 0.5373 0.3772
vn 0.8944 0.0000 0.4472
vn -0.0975 -0.2269 0.9690
vn -0.1205 -0.2540 0.9597
usemtl None
s off
f 1//1 2//1 3//1
f 1//2 4//2 2//2
f 5//3 6//3 7//3
f 8//4 9//4 10//4
f 11//5 12//5 13//5
f 14//6 4//6 1//6
f 12//7 11//7 15//7
f 15//8 11//8 1//8
f 7//9 6//9 4//9
f 4//10 16//10 2//10
f 1//11 11//11 14//11
f 8//12 10//12 2//12
f 17//13 2//13 10//13
f 8//14 2//14 16//14
f 9//15 8//15 18//15
f 19//16 20//16 21//16
f 22//17 20//17 6//17
f 6//17 23//17 22//17
f 6//18 20//18 19//18
f 24//19 25//19 5//19
f 5//19 7//19 24//19
f 7//20 4//20 26//20
f 25//21 27//21 28//21
f 29//22 30//22 22//22
f 22//23 30//23 20//23
f 31//24 2//24 17//24
f 2//25 31//25 3//25
f 32//26 1//26 3//26
f 33//27 34//27 35//27
f 36//28 23//28 6//28
f 6//28 5//28 36//28
f 23//29 29//29 22//29
f 29//30 23//30 36//30
f 37//31 8//31 16//31
f 38//32 39//32 40//32
f 16//33 38//33 37//33
f 41//9 4//9 6//9
f 6//9 42//9 41//9
f 43//17 42//17 6//17
f 41//34 16//34 4//34
f 43//35 41//35 42//35
f 44//33 38//33 16//33
f 44//36 45//36 46//36
f 29//21 36//21 5//21
f 5//37 30//37 29//37
f 47//38 30//38 5//38
f 5//38 48//38 47//38
f 34//39 49//39 50//39
f 50//40 47//40 48//40
f 47//41 50//41 51//41
f 34//42 48//42 28//42
f 3//43 31//43 52//43
f 53//44 52//44 31//44
f 24//45 7//45 26//45
f 54//46 55//46 56//46
f 57//47 46//47 58//47
f 44//48 39//48 38//48
f 44//49 57//49 39//49
f 57//50 44//50 46//50
f 32//51 3//51 52//51
f 1//52 32//52 59//52
f 59//52 15//52 1//52
f 60//53 19//53 21//53
f 6//17 60//17 43//17
f 60//54 6//54 19//54
f 45//55 41//55 43//55
f 61//56 62//56 63//56
f 63//56 64//56 61//56
f 62//57 28//57 27//57
f 27//57 63//57 62//57
f 48//21 5//21 25//21
f 25//21 28//21 48//21
f 65//58 66//58 67//58
f 65//59 18//59 66//59
f 34//60 61//60 35//60
f 62//61 34//61 28//61
f 34//62 62//62 61//62
f 58//63 45//63 68//63
f 68//63 69//63 58//63
f 45//64 58//64 46//64
f 43//55 68//55 45//55
f 70//65 68//65 43//65
f 71//66 68//66 70//66
f 68//67 72//67 69//67
f 71//68 72//68 68//68
f 56//69 67//69 66//69
f 56//70 66//70 73//70
f 48//71 34//71 50//71
f 74//72 34//72 33//72
f 34//73 74//73 75//73
f 10//74 14//74 76//74
f 8//75 73//75 66//75
f 66//76 18//76 8//76
f 76//77 14//77 11//77
f 11//78 13//78 76//78
f 40//79 39//79 8//79
f 77//80 8//80 39//80
f 71//81 55//81 54//81
f 73//82 54//82 56//82
f 78//83 54//83 73//83
f 72//84 78//84 77//84
f 69//85 72//85 77//85
f 77//86 39//86 69//86
f 57//87 58//87 69//87
f 69//87 39//87 57//87
f 78//88 71//88 54//88
f 71//89 78//89 72//89
f 51//90 30//90 47//90
f 79//91 30//91 51//91
f 30//23 80//23 20//23
f 80//92 30//92 79//92
f 49//93 75//93 81//93
f 75//94 49//94 34//94
f 9//95 18//95 14//95
f 14//95 10//95 9//95
f 45//96 44//96 16//96
f 16//96 41//96 45//96
f 76//97 13//97 31//97
f 31//97 10//97 76//97
f 10//97 31//97 17//97
f 8//98 37//98 38//98
f 38//98 40//98 8//98
f 78//99 73//99 8//99
f 8//99 77//99 78//99
f 82//100 35//100 61//100
f 61//101 64//101 82//101
f 74//102 33//102 35//102
f 35//102 82//102 74//102
f 51//58 50//58 49//58
f 49//58 79//58 51//58
f 60//58 49//58 81//58
f 81//58 43//58 60//58
f 20//58 80//58 79//58
f 79//58 21//58 20//58
f 21//58 79//58 49//58
f 49//58 60//58 21//58
f 31//103 13//103 12//103
f 12//103 53//103 31//103
f 59//104 53//104 12//104
f 12//104 15//104 59//104
f 32//105 52//105 83//105
f 83//105 59//105 32//105
f 83//106 84//106 59//106
f 59//107 84//107 53//107
f 52//108 53//108 84//108
f 84//108 83//108 52//108
f 85//109 86//109 87//109
f 86//110 4//110 87//110
f 88//111 89//111 90//111
f 91//112 92//112 93//112
f 94//113 95//113 96//113
f 87//114 4//114 14//114
f 97//115 96//115 95//115
f 87//116 96//116 97//116
f 4//9 89//9 88//9
f 86//117 98//117 4//117
f 14//118 96//118 87//118
f 86//119 91//119 93//119
f 91//120 86//120 99//120
f 98//121 86//121 93//121
f 18//122 93//122 92//122
f 100//123 101//123 102//123
f 89//17 101//17 103//17
f 103//17 104//17 89//17
f 102//124 101//124 89//124
f 90//125 25//125 24//125
f 24//125 88//125 90//125
f 26//126 4//126 88//126
f 105//21 27//21 25//21
f 103//127 106//127 107//127
f 101//23 106//23 103//23
f 99//24 86//24 108//24
f 85//128 108//128 86//128
f 85//129 87//129 109//129
f 110//130 111//130 112//130
f 89//131 104//131 113//131
f 113//131 90//131 89//131
f 103//132 107//132 104//132
f 113//133 104//133 107//133
f 98//134 93//134 114//134
f 115//135 116//135 117//135
f 114//33 117//33 98//33
f 89//9 4//9 118//9
f 118//9 119//9 89//9
f 89//17 119//17 43//17
f 4//136 98//136 118//136
f 119//137 118//137 43//137
f 98//33 117//33 120//33
f 121//138 122//138 120//138
f 90//21 113//21 107//21
f 107//139 106//139 90//139
f 90//140 106//140 123//140
f 123//140 124//140 90//140
f 125//141 126//141 111//141
f 124//142 123//142 125//142
f 127//41 125//41 123//41
f 105//143 124//143 111//143
f 128//144 108//144 85//144
f 108//145 128//145 129//145
f 26//146 88//146 24//146
f 56//147 55//147 130//147
f 131//148 121//148 132//148
f 117//149 116//149 120//149
f 116//49 132//49 120//49
f 121//150 120//150 132//150
f 128//151 85//151 109//151
f 133//52 109//52 87//52
f 87//52 97//52 133//52
f 100//152 102//152 134//152
f 43//17 134//17 89//17
f 102//153 89//153 134//153
f 43//55 118//55 122//55
f 63//56 135//56 136//56
f 136//56 64//56 63//56
f 27//57 105//57 135//57
f 135//57 63//57 27//57
f 25//21 90//21 124//21
f 124//21 105//21 25//21
f 67//58 137//58 65//58
f 137//154 18//154 65//154
f 110//155 136//155 111//155
f 105//156 111//156 135//156
f 136//157 135//157 111//157
f 138//63 122//63 131//63
f 131//63 139//63 138//63
f 121//158 131//158 122//158
f 122//55 138//55 43//55
f 43//159 138//159 70//159
f 70//160 138//160 71//160
f 139//161 140//161 138//161
f 138//162 140//162 71//162
f 137//163 67//163 56//163
f 141//164 137//164 56//164
f 125//165 111//165 124//165
f 112//166 111//166 74//166
f 75//167 74//167 111//167
f 142//168 14//168 91//168
f 137//75 141//75 93//75
f 93//169 18//169 137//169
f 96//170 14//170 142//170
f 142//171 94//171 96//171
f 93//172 116//172 115//172
f 116//173 93//173 143//173
f 130//174 55//174 71//174
f 56//175 130//175 141//175
f 141//176 130//176 144//176
f 143//84 144//84 140//84
f 143//177 140//177 139//177
f 139//178 116//178 143//178
f 139//87 131//87 132//87
f 132//87 116//87 139//87
f 130//179 71//179 144//179
f 140//180 144//180 71//180
f 123//181 106//181 127//181
f 127//182 106//182 145//182
f 101//23 146//23 106//23
f 145//183 106//183 146//183
f 81//184 75//184 126//184
f 111//185 126//185 75//185
f 14//186 18//186 92//186
f 92//186 91//186 14//186
f 98//96 120//96 122//96
f 122//96 118//96 98//96
f 108//97 94//97 142//97
f 142//97 91//97 108//97
f 99//97 108//97 91//97
f 117//98 114//98 93//98
f 93//98 115//98 117//98
f 93//99 141//99 144//99
f 144//99 143//99 93//99
f 136//187 110//187 82//187
f 82//101 64//101 136//101
f 110//188 112//188 74//188
f 74//188 82//188 110//188
f 126//58 125//58 127//58
f 127//58 145//58 126//58
f 81//58 126//58 134//58
f 134//58 43//58 81//58
f 145//58 146//58 101//58
f 101//58 100//58 145//58
f 126//58 145//58 100//58
f 100//58 134//58 126//58
f 95//103 94//103 108//103
f 108//103 129//103 95//103
f 95//104 129//104 133//104
f 133//104 97//104 95//104
f 147//105 128//105 109//105
f 109//105 133//105 147//105
f 133//189 148//189 147//189
f 129//190 148//190 133//190
f 148//108 129//108 128//108
f 128//108 147//108 148//108
